<svg width="63" height="33" viewBox="0 0 63 33" fill="none" xmlns="http://www.w3.org/2000/svg">
<!-- <path d="M0 24.1685L0 12.1573C0 8.23246 3.19025 5.05088 7.12549 5.05088H14.2477C15.2366 5.05088 16.2196 5.19962 17.1639 5.49229C18.0645 5.7713 19.0009 5.91974 19.9441 5.93272L35.993 6.15454C37.4391 6.17455 38.8842 6.08243 40.3159 5.87864L40.4746 5.85625C40.2277 5.27285 39.8141 4.28918 39.7851 4.17355C39.7833 4.16648 39.7822 4.15931 39.7822 4.15199C39.7822 3.9876 40.2215 3.76986 40.6987 4.00791C41.1047 4.21029 41.8687 5.24353 42.138 5.61975L44.1807 5.32917C45.4847 5.14384 46.8 5.05088 48.1171 5.05088L50.9193 5.05088C56.009 5.05088 60.1345 9.16557 60.1345 14.2411V22.0847C60.1345 27.1605 56.009 31.2752 50.9193 31.2752H48.1171C46.8 31.2752 45.4847 31.1819 44.1807 30.9965L42.138 30.7063C41.8687 31.0823 41.1047 32.1157 40.6987 32.318C40.2215 32.556 39.7822 32.3382 39.7822 32.1741C39.7822 32.1666 39.7833 32.1594 39.7851 32.1525C39.8141 32.0364 40.2277 31.0528 40.4746 30.4697L40.3159 30.447C38.8842 30.2437 37.4391 30.1514 35.993 30.1712L19.9441 30.3929C19.0009 30.4059 18.0645 30.5545 17.1639 30.8336C16.2196 31.1263 15.2366 31.2752 14.2477 31.2752H7.12549C3.19025 31.2752 0 28.0932 0 24.1685Z" fill="#D8D5E5"/> -->
<path d="M47.0464 1.97439C48.3501 1.78888 49.6657 1.69592 50.9824 1.69592L53.7847 1.69592C58.874 1.69592 62.9998 5.81061 62.9998 10.8863V14.808V18.7298C62.9998 23.8054 58.874 27.9202 53.7847 27.9202H50.9824C49.6657 27.9202 48.3501 27.8272 47.0464 27.6418L43.1812 27.0923C41.7495 26.8886 40.3045 26.7963 38.8583 26.8165L22.8095 27.0382C21.8662 27.0512 20.9298 27.1994 20.0293 27.4788C19.0849 27.7713 18.1019 27.9202 17.1131 27.9202H9.99048C6.05553 27.9202 2.86499 24.7385 2.86499 20.8138V14.808V8.80249C2.86499 4.87764 6.05553 1.69592 9.99048 1.69592L17.1131 1.69592C18.1019 1.69592 19.0849 1.84465 20.0293 2.13733C20.9298 2.41648 21.8662 2.56482 22.8095 2.57776L38.8583 2.79958C40.3045 2.81974 41.7495 2.72747 43.1812 2.52396L47.0464 1.97439Z" fill="#E00000"/>
<path d="M46.2513 26.9192C47.482 27.0941 48.7232 27.1821 49.9661 27.1821H52.6104C57.4134 27.1821 61.3067 23.2991 61.3067 18.5089V14.808V11.1072C61.3067 6.31723 57.4134 2.4342 52.6104 2.4342H49.9661C48.7232 2.4342 47.482 2.52197 46.2513 2.69702L42.6042 3.21563C41.2531 3.40774 39.8894 3.49467 38.5246 3.47578L23.3792 3.26647C22.4895 3.25424 21.6055 3.11423 20.7559 2.85084C19.8647 2.57464 18.937 2.4342 18.0039 2.4342H11.2827C7.56857 2.4342 4.55811 5.4368 4.55811 9.14051V14.808V20.4755C4.55811 24.1793 7.56857 27.1821 11.2827 27.1821H18.0039C18.937 27.1821 19.8647 27.0415 20.7559 26.7653C21.6055 26.5017 22.4895 26.3618 23.3792 26.3495L38.5246 26.14C39.8894 26.1213 41.2531 26.2082 42.6042 26.4004L46.2513 26.9192Z" fill="#FF4747"/>
<path d="M45.1009 2.4023C45.1009 2.4023 44.0629 0.901579 43.5643 0.652968C43.0662 0.4045 42.6092 0.652967 42.6504 0.818612C42.6923 0.984365 43.5228 2.93103 43.5228 2.93103L45.1009 2.4023Z" fill="#E5E0E9"/>
<path d="M45.1008 27.2138C45.1008 27.2138 44.0628 28.7145 43.5643 28.9632C43.0661 29.2117 42.6091 28.9632 42.6503 28.7974C42.6922 28.6319 43.5227 26.6852 43.5227 26.6852L45.1008 27.2138Z" fill="#E5E0E9"/>
<path d="M61.0932 8.51773C61.3188 8.61098 61.5643 8.63564 61.8054 8.60506C61.1312 6.93138 59.9533 5.51489 58.4573 4.5415C58.9725 5.15346 59.4005 5.83828 59.7187 6.57168C60.0437 7.32025 60.3373 8.20519 61.0932 8.51773Z" fill="#6C9ED1"/>
<path d="M61.0932 21.0986C61.3188 21.0053 61.5643 20.9807 61.8054 21.0114C61.1312 22.6848 59.9533 24.1015 58.4573 25.0746C58.9725 24.4627 59.4005 23.778 59.7187 23.0446C60.0437 22.2957 60.3373 21.4109 61.0932 21.0986Z" fill="#6C9ED1"/>
<path d="M29.9277 5.80745C33.076 5.76858 35.9603 5.69085 37.0203 5.69085C40.1971 5.69085 43.1877 3.32996 43.1877 3.32996H30.8677C30.5174 4.14026 30.2249 4.9749 29.9277 5.80745Z" fill="#3F4045"/>
<path d="M22.0977 5.74111C24.0959 5.83972 26.8493 5.84153 29.474 5.81268C29.7058 4.97645 29.9578 4.14675 30.2524 3.32996H20.9082C21.2737 4.14913 21.6674 4.95493 22.0977 5.74111Z" fill="#3F4045"/>
<path d="M20.2238 3.32996H16.9617C16.9617 3.32996 17.0242 5.38025 21.26 5.69085C21.3753 5.69928 21.496 5.70718 21.6193 5.71464C21.1294 4.93239 20.6269 4.15742 20.2238 3.32996Z" fill="#3F4045"/>
<path d="M29.9277 23.8086C33.076 23.8475 35.9603 23.9251 37.0203 23.9251C40.1971 23.9251 43.1877 26.2861 43.1877 26.2861H30.8677C30.5174 25.4759 30.2249 24.6411 29.9277 23.8086Z" fill="#3F4045"/>
<path d="M22.0977 23.8749C24.0959 23.7761 26.8493 23.7743 29.474 23.8032C29.7058 24.6393 29.9578 25.4694 30.2524 26.286H20.9082C21.2737 25.4668 21.6674 24.661 22.0977 23.8749Z" fill="#3F4045"/>
<path d="M20.2238 26.286H16.9617C16.9617 26.286 17.0242 24.2358 21.26 23.925C21.3753 23.9167 21.496 23.9088 21.6193 23.9012C21.1294 24.6837 20.6269 25.4585 20.2238 26.286Z" fill="#3F4045"/>
<path d="M19.3909 22.7447C19.3909 22.7447 17.7091 19.4213 17.7091 14.8081C17.7091 10.1951 19.3909 6.87143 19.3909 6.87143C17.5254 6.22226 15.025 5.97185 13.6794 5.87944C13.0822 5.83848 12.5188 6.15902 12.2532 6.69439C11.5626 8.08651 10.3586 11.0529 10.3586 14.8081C10.3586 18.5636 11.5626 21.5296 12.2532 22.9221C12.5188 23.4572 13.0822 23.7777 13.6794 23.7366C15.025 23.6447 17.5254 23.3941 19.3909 22.7447ZM45.2569 25.0134C44.2363 24.872 42.1908 24.404 40.1011 22.8575C39.8108 22.6427 39.6571 22.29 39.6882 21.9309C39.7905 20.7378 40.0107 17.8232 40.0107 14.8081C40.0107 11.7929 39.7905 8.87849 39.6882 7.68537C39.6571 7.32621 39.8108 6.97354 40.1011 6.7589C42.1908 5.21224 44.2363 4.74437 45.2569 4.60267C45.6912 4.54253 46.1192 4.75029 46.3293 5.13353C46.9117 6.1958 47.9218 8.89173 47.9218 14.8081C47.9218 20.7244 46.9117 23.4204 46.3293 24.483C46.1192 24.8663 45.6912 25.0736 45.2569 25.0134Z" fill="#3F4045"/>
<path d="M4.56598 6.23896C4.80521 5.4522 5.23185 4.72274 5.80098 4.12766C5.94914 3.97258 6.10969 3.82219 6.20261 3.62907C6.2666 3.49569 6.28822 3.33456 6.24881 3.19556C5.10532 4.02951 4.30965 5.30754 4.11475 6.77545L4.12986 6.777C4.37758 6.76911 4.49324 6.47571 4.56598 6.23896Z" fill="#EF3725"/>
<path d="M4.56598 23.3771C4.80521 24.1638 5.23185 24.8933 5.80098 25.4886C5.94914 25.6436 6.10969 25.7936 6.20261 25.9869C6.2666 26.1203 6.28822 26.2815 6.24881 26.4206C5.10532 25.5866 4.30965 24.3084 4.11475 22.8406L4.12986 22.8391C4.37758 22.847 4.49324 23.1402 4.56598 23.3771Z" fill="#EF3725"/>
</svg>
